<svg width="48" height="48" viewBox="0 0 48 48" fill="none" xmlns="http://www.w3.org/2000/svg">
<g filter="url(#filter0_d_70_30457)">
<circle cx="24" cy="20" r="18.3333" fill="#FFF500"/>
<path d="M24 36.6667C33.205 36.6667 40.6667 29.205 40.6667 20C40.6667 10.795 33.205 3.33334 24 3.33334C14.795 3.33334 7.33334 10.795 7.33334 20C7.33334 29.205 14.795 36.6667 24 36.6667Z" stroke="#3793FF" stroke-width="4" stroke-linejoin="round"/>
<path d="M29.8333 15V15.8333" stroke="#3793FF" stroke-width="4" stroke-linecap="round" stroke-linejoin="round"/>
<path d="M18.1667 15V15.8333" stroke="#3793FF" stroke-width="4" stroke-linecap="round" stroke-linejoin="round"/>
<path d="M25.6667 23.3333H22.3333C20.4924 23.3333 19 24.8257 19 26.6666C19 28.5076 20.4924 30 22.3333 30H25.6667C27.5076 30 29 28.5076 29 26.6666C29 24.8257 27.5076 23.3333 25.6667 23.3333Z" stroke="#3793FF" stroke-width="4" stroke-linecap="round" stroke-linejoin="round"/>
</g>
<defs>
<filter id="filter0_d_70_30457" x="0" y="0" width="48" height="48" filterUnits="userSpaceOnUse" color-interpolation-filters="sRGB">
<feFlood flood-opacity="0" result="BackgroundImageFix"/>
<feColorMatrix in="SourceAlpha" type="matrix" values="0 0 0 0 0 0 0 0 0 0 0 0 0 0 0 0 0 0 127 0" result="hardAlpha"/>
<feOffset dy="4"/>
<feGaussianBlur stdDeviation="2"/>
<feComposite in2="hardAlpha" operator="out"/>
<feColorMatrix type="matrix" values="0 0 0 0 0 0 0 0 0 0 0 0 0 0 0 0 0 0 0.25 0"/>
<feBlend mode="normal" in2="BackgroundImageFix" result="effect1_dropShadow_70_30457"/>
<feBlend mode="normal" in="SourceGraphic" in2="effect1_dropShadow_70_30457" result="shape"/>
</filter>
</defs>
</svg>
